<svg width="203" height="53" viewBox="0 0 203 53" fill="none" xmlns="http://www.w3.org/2000/svg">
<path d="M72.7079 41.9641C72.5977 41.4132 72.5426 40.6832 72.5426 39.7742C72.0193 40.6832 71.2342 41.3718 70.1875 41.8401C69.1683 42.2808 68.0802 42.5012 66.9233 42.5012C64.5269 42.5012 62.64 41.7437 61.2627 40.2287C59.8854 38.6862 59.1968 36.7717 59.1968 34.4854V21.6354H64.6921V33.3699C64.6921 34.5819 65.0089 35.5735 65.6424 36.3448C66.276 37.0885 67.1988 37.4604 68.4108 37.4604C69.5952 37.4604 70.5318 37.1023 71.2204 36.3861C71.9091 35.6424 72.2534 34.6645 72.2534 33.4525V21.6354H77.7487V38.2867C77.7487 39.5814 77.8176 40.8072 77.9553 41.9641H72.7079Z" fill="white"/>
<path d="M89.1087 30.271V41.9641H83.6134V21.6354H88.9434V24.1559C89.5219 23.1642 90.3483 22.4067 91.4225 21.8833C92.4968 21.36 93.6262 21.0983 94.8106 21.0983C97.2071 21.0983 99.0251 21.8558 100.265 23.3708C101.532 24.8583 102.165 26.7865 102.165 29.1554V41.9641H96.67V30.1057C96.67 28.8937 96.3532 27.9158 95.7197 27.1721C95.1137 26.4284 94.1771 26.0565 92.91 26.0565C91.7531 26.0565 90.8303 26.4559 90.1417 27.2547C89.453 28.0536 89.1087 29.059 89.1087 30.271Z" fill="white"/>
<path d="M111.751 29.4859H120.841C120.786 28.3566 120.372 27.4062 119.601 26.635C118.857 25.8637 117.755 25.478 116.296 25.478C114.973 25.478 113.899 25.8912 113.073 26.7176C112.246 27.544 111.806 28.4667 111.751 29.4859ZM121.378 34.7747L125.964 36.1382C125.413 38.0113 124.325 39.5538 122.7 40.7658C121.102 41.9778 119.105 42.5839 116.709 42.5839C113.789 42.5839 111.31 41.606 109.271 39.6502C107.233 37.667 106.214 35.0226 106.214 31.7171C106.214 28.5769 107.206 26.0152 109.189 24.0319C111.172 22.0211 113.513 21.0157 116.213 21.0157C119.353 21.0157 121.805 21.9522 123.568 23.8253C125.358 25.6984 126.253 28.2739 126.253 31.5518C126.253 31.7722 126.24 32.0201 126.212 32.2956C126.212 32.571 126.212 32.7914 126.212 32.9567L126.171 33.2459H111.627C111.682 34.5681 112.205 35.6699 113.197 36.5514C114.188 37.4328 115.373 37.8736 116.75 37.8736C119.091 37.8736 120.634 36.8406 121.378 34.7747Z" fill="white"/>
<path d="M129.341 36.4274C129.341 34.692 129.906 33.301 131.035 32.2543C132.165 31.2075 133.625 30.5464 135.415 30.271L140.415 29.5272C141.434 29.3895 141.943 28.9075 141.943 28.0811C141.943 27.3098 141.64 26.6763 141.034 26.1805C140.456 25.6846 139.616 25.4367 138.514 25.4367C137.357 25.4367 136.434 25.7535 135.746 26.387C135.084 27.0206 134.713 27.8056 134.63 28.7422L129.754 27.7092C129.947 25.9463 130.815 24.39 132.357 23.0403C133.9 21.6905 135.938 21.0157 138.473 21.0157C141.503 21.0157 143.734 21.7456 145.166 23.2055C146.599 24.6379 147.315 26.4835 147.315 28.7422V38.7412C147.315 39.9532 147.397 41.0275 147.563 41.9641H142.522C142.384 41.3581 142.315 40.5455 142.315 39.5263C141.021 41.5371 139.023 42.5425 136.324 42.5425C134.231 42.5425 132.536 41.9365 131.242 40.7245C129.975 39.5125 129.341 38.0801 129.341 36.4274ZM137.481 38.452C138.776 38.452 139.836 38.0939 140.662 37.3777C141.516 36.634 141.943 35.422 141.943 33.7417V32.8327L137.357 33.5351C135.677 33.783 134.837 34.6369 134.837 36.0969C134.837 36.758 135.071 37.3226 135.539 37.7909C136.007 38.2316 136.655 38.452 137.481 38.452Z" fill="white"/>
<path d="M165.249 21.5528V27.0895C164.699 26.9793 164.148 26.9242 163.597 26.9242C162.027 26.9242 160.76 27.3787 159.795 28.2877C158.831 29.1691 158.349 30.6291 158.349 32.6674V41.9641H152.854V21.6354H158.184V24.6517C159.176 22.5307 161.104 21.4702 163.969 21.4702C164.272 21.4702 164.699 21.4977 165.249 21.5528Z" fill="white"/>
<path d="M176.698 15.5616V21.6354H180.789V26.511H176.698V35.0226C176.698 35.8765 176.891 36.4825 177.277 36.8406C177.662 37.1987 178.268 37.3777 179.095 37.3777C179.838 37.3777 180.403 37.3226 180.789 37.2125V41.7575C179.99 42.088 178.957 42.2533 177.69 42.2533C175.707 42.2533 174.136 41.7024 172.98 40.6006C171.823 39.4712 171.244 37.9286 171.244 35.9729V26.511H167.567V21.6354H168.6C169.619 21.6354 170.39 21.3462 170.914 20.7677C171.465 20.1617 171.74 19.3767 171.74 18.4126V15.5616H176.698Z" fill="white"/>
<path d="M189.943 30.0231V41.9641H184.448V12.0496H189.943V23.3295C191.183 21.842 193.015 21.0983 195.439 21.0983C197.918 21.0983 199.791 21.8558 201.058 23.3708C202.353 24.8583 203 26.7865 203 29.1554V41.9641H197.505V30.1057C197.505 28.8937 197.188 27.9158 196.554 27.1721C195.948 26.4284 195.012 26.0565 193.745 26.0565C192.615 26.0565 191.706 26.4284 191.018 27.1721C190.357 27.9158 189.998 28.8661 189.943 30.0231Z" fill="white"/>
<path d="M44.183 29.8523C43.5742 17.2846 37.592 10.5507 30.9482 8.74017C37.4597 11.6518 41.4089 21.1756 42.2983 32.0069C41.5042 32.7904 40.3343 33.4522 40.3343 33.4522C39.8896 23.4784 36.5756 14.4153 31.2076 10.8154C28.8782 9.25368 26.496 8.20548 23.5578 7.79785C22.6579 7.86138 20.8791 8.2796 20.0215 8.44371C20.7627 8.6237 21.4985 8.86193 22.2079 9.1531C30.7364 12.6841 32.3246 33.2404 32.5681 37.592C31.5093 37.915 30.1805 38.1955 30.1805 38.1955C29.6723 26.8136 26.676 13.6159 21.2868 11.3818C19.1057 10.4766 16.7552 10.2489 14.5952 10.4448C9.40191 13.4676 5.78087 19.5398 5.2303 29.757C4.57385 30.1964 4.10269 30.5299 3.97035 30.6676C1.80513 32.8963 1.67279 33.9392 8.3643 37.2267C15.0558 40.5196 20.498 42.3301 23.9125 43.7224C27.3218 45.1147 32.261 46.2052 42.9812 43.3836C54.9243 41.0066 49.9374 35.6703 44.183 29.8523Z" fill="#007BFF"/>
</svg>
