<svg width="650" height="69" viewBox="0 0 650 69" fill="none" xmlns="http://www.w3.org/2000/svg">
<path d="M19.9538 20.2837L24.0778 29.8144C24.2929 30.3119 24.6894 30.7071 25.1856 30.9222L34.7163 35.0462C36.4279 35.7873 36.4279 38.214 34.7163 38.9538L25.1856 43.0778C24.6881 43.2929 24.2929 43.6894 24.0778 44.1856L19.9538 53.7163C19.2127 55.4279 16.786 55.4279 16.0462 53.7163L11.9222 44.1856C11.7071 43.6881 11.3106 43.2929 10.8144 43.0778L1.28366 38.9538C-0.427885 38.2127 -0.427885 35.786 1.28366 35.0462L10.8144 30.9222C11.3119 30.7071 11.7071 30.3106 11.9222 29.8144L16.0462 20.2837C16.7873 18.5721 19.214 18.5721 19.9538 20.2837Z" fill="#FF7F90"/>
<path d="M366.977 0.641658L369.039 5.40662C369.146 5.65504 369.345 5.85357 369.593 5.961L374.358 8.02313C375.214 8.39335 375.214 9.60665 374.358 9.97688L369.593 12.039C369.345 12.1464 369.146 12.345 369.039 12.5934L366.977 17.3583C366.607 18.2139 365.393 18.2139 365.023 17.3583L362.961 12.5934C362.854 12.345 362.655 12.1464 362.407 12.039L357.642 9.97688C356.786 9.60665 356.786 8.39335 357.642 8.02313L362.407 5.961C362.655 5.85357 362.854 5.65504 362.961 5.40662L365.023 0.641658C365.393 -0.213886 366.607 -0.213886 366.977 0.641658Z" fill="#82F9EA"/>
<path d="M639.303 7.85577L642.052 14.2096C642.195 14.5413 642.46 14.8047 642.79 14.9481L649.144 17.6975C650.285 18.1915 650.285 19.8093 649.144 20.3025L642.79 23.0519C642.459 23.1953 642.195 23.4596 642.052 23.7904L639.303 30.1442C638.808 31.2853 637.191 31.2853 636.697 30.1442L633.948 23.7904C633.805 23.4587 633.54 23.1953 633.21 23.0519L626.856 20.3025C625.715 19.8085 625.715 18.1907 626.856 17.6975L633.21 14.9481C633.541 14.8047 633.805 14.5404 633.948 14.2096L636.697 7.85577C637.192 6.71474 638.809 6.71474 639.303 7.85577Z" fill="#FFD87D"/>
<path d="M587.737 38.1404L591.403 46.6118C591.594 47.0529 591.947 47.4061 592.388 47.597L600.86 51.2634C602.38 51.9216 602.38 54.0784 600.86 54.7366L592.388 58.403C591.947 58.5939 591.594 58.9471 591.403 59.3881L587.737 67.8596C587.078 69.3801 584.922 69.3801 584.263 67.8596L580.597 59.3881C580.406 58.9471 580.053 58.5939 579.612 58.403L571.14 54.7366C569.62 54.0784 569.62 51.9216 571.14 51.2634L579.612 47.597C580.053 47.4061 580.406 47.0529 580.597 46.6118L584.263 38.1404C584.922 36.6199 587.078 36.6199 587.737 38.1404Z" fill="#7DBDFF"/>
</svg>
